<svg width="155" height="155" viewBox="0 0 155 155" fill="none" xmlns="http://www.w3.org/2000/svg">
    <g clip-path="url(#clip0_1_3)">
        <path d="M130.987 98.2239C128.567 98.0225 126.165 97.6418 123.802 97.0848C122.666 96.8244 121.552 96.4727 120.472 96.0334C125.116 97.7858 129.848 99.6258 134.492 101.466C139.573 103.481 144.655 105.409 149.65 107.424C148.289 105.479 146.827 103.607 145.269 101.816C143.847 99.9566 142.231 98.2531 140.45 96.7343C138.636 95.2721 136.631 94.0636 134.492 93.1419C132.828 93.8231 131.01 94.0353 129.234 93.7553C127.387 93.3998 125.647 92.6199 124.152 91.4771C122.512 90.3927 121.135 88.9558 120.122 87.2714C119.26 85.7953 118.722 84.1524 118.545 82.4523V82.1894C118.72 81.0503 118.72 79.8237 118.808 78.6846L118.895 78.3341H118.808V74.8293C118.71 73.807 118.891 72.7773 119.333 71.8502C120.224 69.4763 121.701 67.3663 123.627 65.7168C125.229 64.324 127.158 63.3594 129.234 62.913C131.249 62.5453 133.322 62.6654 135.28 63.2634C141.604 59.9381 146.678 54.6494 149.737 48.1928L121.436 60.4596C126.606 58.9051 131.986 58.166 137.383 58.2691C130.987 60.1091 127.394 60.4596 125.291 60.4596C123.601 60.5809 121.928 60.8745 120.297 61.3358C119.246 61.5987 118.282 61.7739 117.844 62.5625C117.553 63.2585 117.522 64.0359 117.756 64.753C118.212 66.6854 118.534 68.6469 118.72 70.6235C118.369 69.835 118.019 69.134 117.756 68.433C117.406 67.0311 117.055 65.6292 116.617 64.3149C116.545 63.8977 116.606 63.4686 116.792 63.0882C117.017 62.4906 117.414 61.9725 117.931 61.5987C117.239 61.705 116.532 61.5819 115.916 61.2482C115.673 61.1231 115.463 60.9431 115.303 60.7225L115.215 60.6348C114.865 59.8463 114.514 59.0577 114.164 58.3567C113.635 56.7875 112.867 55.3097 111.886 53.9757C112.324 54.4138 112.674 54.7643 113.112 55.29C114.056 56.3334 114.879 57.4797 115.566 58.7072C115.844 59.3222 116.265 59.8627 116.792 60.2844C117.163 60.5202 117.582 60.6699 118.019 60.7225C118.545 60.4596 119.421 60.0215 120.297 59.4958C122.5 58.2369 124.635 56.8622 126.693 55.3776C128.796 53.8881 131.6 51.8728 134.93 49.2442C133.315 51.0183 131.589 52.6865 129.76 54.2386C127.935 55.8156 125.97 57.2234 123.889 58.4443C122.663 59.1453 121.611 59.671 120.823 60.1091C125.379 58.0939 129.935 55.991 134.579 53.9757C139.573 51.7852 144.568 49.5947 149.475 47.4918C146.671 47.0537 144.217 46.7909 142.377 46.6156C140.051 46.3384 137.705 46.2798 135.368 46.4404C133.055 46.6936 130.786 47.2534 128.621 48.1052C127.933 49.8118 126.78 51.2912 125.293 52.3754C123.806 53.4595 122.045 54.1051 120.209 54.2386C118.293 54.6201 116.316 54.5601 114.427 54.0633C112.878 53.6322 111.423 52.9194 110.133 51.9605C108.766 50.2438 107.304 48.6056 105.752 47.0537C105.489 46.8785 105.314 46.7032 105.051 46.528C104.661 46.1561 104.252 45.8051 103.824 45.4766C103.392 44.9457 103.038 44.3556 102.773 43.7242C101.732 41.3867 101.28 38.8292 101.459 36.2765C101.635 34.1558 102.327 32.1104 103.474 30.3183C104.642 28.6242 106.206 27.2407 108.03 26.2878C110.15 19.4784 110.027 12.1684 107.68 5.43417C103.912 14.9848 100.144 24.623 96.3768 34.1736C97.4387 32.165 98.6391 30.2326 99.9692 28.3906C101.797 25.8464 103.85 23.4711 106.103 21.2934C102.861 27.0763 100.67 29.8802 99.1806 31.3697C98.0618 32.6469 97.0645 34.0256 96.2015 35.4879C95.8845 35.8435 95.6433 36.26 95.4926 36.7119C95.342 37.1639 95.2851 37.6418 95.3253 38.1165C95.5999 38.8146 96.1336 39.3796 96.8149 39.6936C98.5115 40.7324 100.123 41.9044 101.634 43.1984C101.117 43.0475 100.618 42.8419 100.144 42.5851C98.6371 41.5632 97.0555 40.6553 95.4129 39.8689C95.2382 39.6865 95.0907 39.48 94.9748 39.2555C94.7111 38.6495 94.6202 37.9824 94.712 37.3279C94.2868 37.9091 93.6634 38.3144 92.9596 38.467C92.794 38.5383 92.6136 38.5684 92.4339 38.5546C91.2948 38.1165 90.0681 37.6784 88.8414 37.3279C87.6097 36.8048 86.3128 36.4511 84.9861 36.2765H86.7385C88.1637 36.3387 89.576 36.5741 90.9443 36.9774C91.581 37.2416 92.2764 37.3323 92.9596 37.2403C93.4076 37.1259 93.8259 36.9167 94.1863 36.6269C94.3615 36.0136 94.6244 35.1374 94.9748 34.086C95.6544 31.6625 96.2101 29.2059 96.6396 26.7259C97.0777 24.1849 97.6034 20.7677 98.1292 16.6495C98.246 19.0164 98.1874 21.3886 97.9539 23.7468C97.7525 26.1666 97.3718 28.5682 96.8149 30.9316C96.5544 32.0679 96.2028 33.1814 95.7634 34.2612C97.5158 29.6173 99.3558 24.8858 101.196 20.242C103.211 15.16 105.139 10.078 107.154 5.08369C105.209 6.44407 103.337 7.90645 101.546 9.46469C99.6867 10.8868 97.9831 12.5022 96.4644 14.2838C95.0022 16.0977 93.7936 18.1022 92.872 20.242C93.5532 21.9053 93.7653 23.7237 93.4853 25.4992C93.1298 27.3468 92.35 29.0865 91.2072 30.5811C90.2864 32.017 89.08 33.2481 87.6631 34.1977C86.2461 35.1474 84.649 35.7953 82.9709 36.1012C81.0847 35.8247 79.1818 35.6783 77.2756 35.6631C75.8737 35.6631 74.3841 35.7507 72.9822 35.8384C72.4746 35.7329 71.9765 35.5864 71.4926 35.4003C69.1187 34.5095 67.0087 33.0325 65.3592 31.1069C63.9664 29.5042 63.0019 27.575 62.5554 25.4992C62.1877 23.4848 62.3079 21.4117 62.9059 19.4534C59.6271 13.1345 54.4056 8.03583 48.0105 4.90845C52.1286 14.3714 56.1591 23.7468 60.2773 33.2097C58.7084 28.045 57.998 22.6578 58.1744 17.2629C60.0144 23.6592 60.3649 27.2516 60.3649 29.3545C60.4862 31.0447 60.7798 32.7182 61.2411 34.3488C61.504 35.4003 61.6792 36.3641 62.4678 36.8022C63.1638 37.0931 63.9412 37.1242 64.6583 36.8898C66.5906 36.4339 68.5521 36.1119 70.5288 35.926C70.1949 36.1089 69.8424 36.2558 69.4774 36.3641C67.4776 36.7144 65.5129 37.2422 63.6068 37.9412C63.3928 37.924 63.1843 37.8645 62.9935 37.766C62.3959 37.5409 61.8778 37.1447 61.504 36.6269C61.6102 37.3189 61.4872 38.0267 61.1535 38.6422C61.0659 38.7298 60.9782 38.9051 60.8906 38.9927C59.6639 39.5184 58.4373 40.1317 57.2106 40.7451C56.0358 41.2684 54.9197 41.9145 53.881 42.6727C54.3191 42.2346 54.6696 41.8841 55.1953 41.446C56.2387 40.5026 57.385 39.6796 58.6125 38.9927C59.2275 38.7138 59.768 38.2935 60.1897 37.766C60.4254 37.3949 60.5751 36.9758 60.6278 36.5393C60.3649 35.926 59.9268 35.1374 59.4011 34.1736C58.1744 31.9831 56.7725 29.7926 55.3705 27.7773C53.9686 25.762 51.8657 22.8706 49.2371 19.541C51.0112 21.1552 52.6794 22.8819 54.2315 24.7106C55.8085 26.5359 57.2163 28.5008 58.4373 30.5811C59.1382 31.8078 59.6639 32.8593 60.102 33.6478C57.9992 29.0916 55.9839 24.5354 53.9686 19.8915C51.7781 14.8971 49.5876 9.90279 47.4847 4.99607C47.0466 7.79991 46.7838 10.2533 46.6085 12.0933C46.3313 14.4192 46.2727 16.766 46.4333 19.1029C46.6865 21.4157 47.2463 23.6845 48.0981 25.8497C49.746 26.5667 51.1909 27.6805 52.3038 29.0916C53.3642 30.6288 54.0265 32.405 54.2315 34.2612C54.613 36.1771 54.5531 38.1548 54.0562 40.0441C53.6979 41.463 53.0735 42.801 52.2162 43.987C50.6548 45.1525 49.1898 46.4418 47.8352 47.8423C47.6095 48.0564 47.4041 48.2911 47.2219 48.5433C46.5044 49.261 45.8314 50.0217 45.2066 50.8214C44.7 51.1466 44.1732 51.4393 43.6295 51.6976C41.3251 52.7459 38.7941 53.1978 36.2694 53.0119C34.1488 52.8357 32.1033 52.1439 30.3112 50.9966C28.6171 49.8283 27.2337 48.2643 26.2807 46.4404C19.4713 44.3209 12.1614 44.4437 5.42708 46.7909L34.1665 58.0939C32.1579 57.0319 30.2256 55.8316 28.3836 54.5014C25.8393 52.6732 23.464 50.6205 21.2863 48.368C27.0692 51.61 29.8731 53.8005 31.3626 55.29C32.6399 56.4088 34.0185 57.4061 35.4808 58.2691C35.8364 58.5861 36.2529 58.8273 36.7048 58.978C37.1568 59.1286 37.6347 59.1856 38.1094 59.1453C38.8075 58.8707 39.3726 58.3371 39.6865 57.6558C40.7253 55.9591 41.8973 54.3477 43.1914 52.8367L42.6656 54.151C41.6143 55.717 40.6772 57.3568 39.8618 59.0577C39.6794 59.2324 39.4729 59.38 39.2484 59.4958C38.6424 59.7595 37.9753 59.8504 37.3208 59.7586C37.902 60.1838 38.3073 60.8073 38.4599 61.511C38.5317 61.7071 38.5616 61.9161 38.5475 62.1244C38.1191 63.1182 37.7676 64.1435 37.496 65.1911C36.8759 66.5226 36.4622 67.9408 36.2694 69.3969V67.6445C36.3317 66.2193 36.567 64.807 36.9703 63.4387C37.2346 62.802 37.3253 62.1066 37.2332 61.4234C37.1188 60.9754 36.9097 60.5571 36.6198 60.1967C36.0065 60.0215 35.1303 59.7586 34.0789 59.4082C31.6554 58.7286 29.1988 58.1729 26.7188 57.7434C24.1778 57.3053 20.7606 56.7796 16.6425 56.2538C19.0093 56.137 21.3815 56.1956 23.7397 56.4291C26.1595 56.6305 28.5611 57.0112 30.9245 57.5681C32.0608 57.8286 33.1743 58.1802 34.2541 58.6196C29.6102 56.8672 24.8787 55.1148 20.2349 53.1871C15.1529 51.1719 10.0709 49.2442 5.0766 47.229C6.43698 49.1742 7.89936 51.046 9.4576 52.8367C10.8797 54.6963 12.4951 56.3999 14.2767 57.9186C16.0721 59.3844 18.0814 60.5664 20.2349 61.4234C21.8983 60.7422 23.7166 60.5301 25.4921 60.8101C27.3397 61.1655 29.0794 61.9454 30.5741 63.0882C32.1942 64.196 33.5667 65.6282 34.6046 67.294V67.3816C35.6322 69.2245 36.1181 71.3203 36.0065 73.4274C35.9189 75.8807 35.8313 79.4732 35.9189 79.6484L36.0065 80.3494C36.0007 81.1945 35.8218 82.0294 35.4808 82.8027C34.59 85.1767 33.1131 87.2866 31.1874 88.9361C29.6164 90.3063 27.7163 91.2448 25.6734 91.6595C23.6305 92.0742 21.5149 91.951 19.5339 91.3019C13.2391 94.584 8.16941 99.8073 5.0766 106.197L33.3779 93.9305C28.2132 95.4993 22.8259 96.2098 17.431 96.0334C23.8273 94.1934 27.4197 93.8429 29.5226 93.8429C31.2129 93.7216 32.8863 93.428 34.517 92.9667C35.5684 92.7038 36.5322 92.5286 36.9703 91.74C37.2613 91.0439 37.2924 90.2665 37.0579 89.5495C36.6021 87.6171 36.28 85.6556 36.0941 83.6789C36.4446 84.3799 36.7075 85.0809 36.9703 85.6942C37.2978 87.1474 37.7073 88.5808 38.197 89.9876C38.2752 90.4046 38.2136 90.8358 38.0218 91.2143C37.7966 91.8119 37.4005 92.33 36.8827 92.7038C37.5736 92.6409 38.2689 92.7618 38.898 93.0543C39.135 93.1483 39.3455 93.2987 39.5113 93.4924L39.6865 93.6676C39.9494 94.281 40.2999 94.8943 40.5627 95.5077C41.0149 97.2151 41.7881 98.8209 42.8409 100.239L41.6142 99.0125C40.6708 97.9691 39.8478 96.8228 39.1608 95.5953C38.8819 94.9802 38.4616 94.4398 37.9341 94.0181C37.5376 93.7687 37.0868 93.6184 36.6198 93.58C36.0065 93.8429 35.2179 94.281 34.2541 94.8067C32.0636 96.0334 29.8731 97.4353 27.8578 98.8372C25.8426 100.239 22.9511 102.342 19.6215 104.971C21.2142 103.203 22.9427 101.562 24.7911 100.064C26.6164 98.4868 28.5813 97.0791 30.6617 95.8581C31.8884 95.1572 32.9398 94.5438 33.7284 94.1934C29.1721 96.2086 24.6159 98.3115 19.972 100.327C14.9777 102.517 9.98333 104.708 5.0766 106.811C7.88044 107.249 10.3338 107.512 12.1738 107.687C14.4998 107.964 16.8466 108.023 19.1834 107.862C21.4697 107.619 23.7109 107.059 25.8426 106.197C26.5597 104.549 27.6734 103.105 29.0845 101.992C30.6217 100.931 32.398 100.269 34.2541 100.064C36.17 99.6824 38.1477 99.7423 40.037 100.239C41.6971 100.675 43.2486 101.451 44.5933 102.517C44.6809 102.605 44.7685 102.693 44.8561 102.693C45.5396 103.551 46.2709 104.37 47.0466 105.146C47.1343 105.321 49.6752 107.95 49.8505 108.037C50.6324 108.694 51.2353 109.538 51.6029 110.491C52.6512 112.795 53.1031 115.326 52.9172 117.851C52.741 119.971 52.0492 122.017 50.9019 123.809C49.7336 125.503 48.1696 126.886 46.3457 127.839C44.2262 134.649 44.349 141.959 46.6962 148.693L57.9991 119.954C56.9372 121.962 55.7369 123.895 54.4067 125.737C52.5784 128.281 50.5258 130.656 48.2733 132.834C51.5153 127.051 53.7058 124.247 55.1953 122.758C56.3141 121.48 57.3114 120.102 58.1744 118.639C58.7877 117.676 59.2258 116.887 59.0506 116.011C58.776 115.313 58.2424 114.748 57.561 114.434C55.8644 113.395 54.2529 112.223 52.7419 110.929C53.881 111.367 55.0201 111.805 56.1591 112.331C56.6848 112.681 57.2982 112.944 57.8239 113.295C58.5104 113.63 59.0654 114.185 59.4011 114.872C59.6648 115.478 59.7557 116.145 59.6639 116.799C60.1148 116.246 60.7276 115.848 61.4163 115.66C61.6726 115.588 61.939 115.558 62.2049 115.573C62.4997 115.558 62.795 115.588 63.0811 115.66C63.344 115.748 63.5192 115.836 63.7821 115.923C64.0242 116.022 64.2585 116.139 64.483 116.274C66.0134 117.1 67.6722 117.663 69.3898 117.938H67.6374C66.2122 117.876 64.7999 117.641 63.4316 117.237C62.7949 116.973 62.0995 116.883 61.4163 116.975C60.9683 117.089 60.55 117.298 60.1897 117.588C60.0144 118.201 59.7516 119.077 59.4011 120.129C58.7215 122.552 58.1658 125.009 57.7363 127.489C57.2982 130.03 56.7725 133.447 56.2467 137.653C56.1299 135.286 56.1885 132.914 56.422 130.556C56.6234 128.136 57.0041 125.734 57.561 123.371C57.8215 122.235 58.1731 121.121 58.6125 120.041C56.8601 124.685 55.0201 129.417 53.18 134.061C51.1648 139.142 49.2371 144.224 47.2219 149.219C49.1671 147.858 51.0389 146.396 52.8296 144.838C54.6892 143.416 56.3928 141.8 57.9115 140.019C59.3773 138.223 60.5593 136.214 61.4163 134.061C60.7351 132.397 60.523 130.579 60.803 128.803C61.1584 126.956 61.9383 125.216 63.0811 123.721C64.1889 122.101 65.6211 120.729 67.2869 119.691C68.763 118.829 70.4058 118.291 72.106 118.114C72.4565 118.114 72.807 118.026 73.0698 118.026C73.739 118.099 74.4121 118.128 75.0851 118.114C75.5232 118.201 79.4661 118.289 79.6413 118.289C80.6636 118.191 81.6933 118.373 82.6204 118.815C84.9944 119.705 87.1043 121.182 88.7538 123.108C90.1466 124.711 91.1112 126.64 91.5577 128.716C91.9254 130.73 91.8052 132.803 91.2072 134.761C92.712 137.604 94.5987 140.228 96.8149 142.56C99.5102 145.353 102.686 147.638 106.19 149.306C102.072 139.843 98.0415 130.468 93.9234 121.005C94.5367 123.196 95.0625 125.386 95.5006 127.664C96.0127 130.762 96.2182 133.902 96.1139 137.04C94.2739 130.643 93.9234 127.051 93.9234 124.948C93.8021 123.258 93.5085 121.584 93.0472 119.954C92.7843 118.902 92.6091 117.938 91.8205 117.5C91.1245 117.209 90.3471 117.178 89.63 117.413C87.6977 117.869 85.7361 118.191 83.7595 118.377C84.9778 117.79 86.237 117.292 87.5271 116.887C89.8929 116.186 90.6815 116.274 91.2072 116.449C91.8048 116.674 92.3229 117.07 92.6967 117.588C92.6338 116.897 92.7547 116.202 93.0472 115.573C93.1412 115.336 93.2916 115.125 93.4853 114.959C94.0653 114.406 94.7978 114.04 95.5882 113.908C97.2584 113.387 98.8285 112.587 100.232 111.542L99.0054 112.769C97.962 113.712 96.8157 114.535 95.5882 115.222C94.9594 115.478 94.4136 115.902 94.011 116.449C93.7752 116.82 93.6255 117.239 93.5729 117.676C93.8358 118.201 94.2739 119.077 94.7996 119.954C96.0263 122.144 97.4282 124.247 98.8301 126.35C100.232 128.453 102.335 131.257 104.964 134.586C103.196 132.994 101.555 131.265 100.057 129.417C98.4798 127.591 97.072 125.626 95.851 123.546C95.1501 122.319 94.5367 121.268 94.1863 120.479C96.2015 125.036 98.3044 129.592 100.32 134.236C102.51 139.23 104.701 144.224 106.804 149.131C107.242 146.327 107.505 143.874 107.68 142.034C107.957 139.708 108.016 137.361 107.855 135.024C107.602 132.712 107.042 130.443 106.19 128.278C104.542 127.56 103.097 126.447 101.984 125.036C100.924 123.498 100.262 121.722 100.057 119.866C99.6753 117.95 99.7352 115.972 100.232 114.083C100.668 112.423 101.444 110.872 102.51 109.527C102.773 109.264 103.036 108.914 103.299 108.651C103.787 108.267 104.255 107.857 104.701 107.424C105.051 107.161 107.943 104.445 108.118 104.27C108.775 103.488 109.619 102.885 110.571 102.517C112.876 101.469 115.407 101.017 117.931 101.203C120.052 101.379 122.097 102.071 123.889 103.218C125.584 104.387 126.967 105.951 127.92 107.774C134.729 109.894 142.039 109.771 148.774 107.424L120.034 96.121C122.043 97.1829 123.975 98.3833 125.817 99.7134C128.361 101.542 130.737 103.594 132.914 105.847C127.131 102.605 124.328 100.414 122.838 98.9248C121.561 97.8061 120.182 96.8087 118.72 95.9458C117.756 95.3324 116.967 94.8943 116.091 95.0696C115.393 95.3441 114.828 95.8778 114.514 96.5591C113.475 98.2558 112.303 99.8672 111.009 101.378C111.445 100.143 111.972 98.9423 112.586 97.7858C112.912 97.2792 113.204 96.7524 113.463 96.2086C113.798 95.5221 114.353 94.9671 115.04 94.6315C115.646 94.3678 116.313 94.2768 116.967 94.3686C116.414 93.9178 116.016 93.3049 115.828 92.6162C115.756 92.3599 115.727 92.0935 115.741 91.8276C115.727 91.6193 115.757 91.4103 115.828 91.2143C116.004 90.7762 116.091 90.4257 116.267 89.9876C116.332 89.8557 116.421 89.737 116.529 89.6371C117.394 88.1236 117.959 86.4577 118.194 84.7304V86.4828C118.132 87.9079 117.897 89.3202 117.493 90.6885C117.229 91.3253 117.138 92.0206 117.23 92.7038C117.345 93.1519 117.554 93.5702 117.844 93.9305C118.457 94.1057 119.333 94.3686 120.385 94.7191C122.808 95.3987 125.265 95.9543 127.745 96.3839C130.286 96.822 133.703 97.3477 137.909 97.8734C135.633 98.3484 133.298 98.4667 130.987 98.2239ZM38.4599 88.5857C37.6298 85.4599 37.1016 82.2617 36.8827 79.0351C36.8827 78.5093 36.8827 74.1283 37.0579 72.6388C37.2332 71.675 37.3208 70.6235 37.5837 69.5721C38.1935 66.6919 39.0736 63.8755 40.2123 61.1606V61.0729C42.1573 57.0309 44.6648 53.2844 47.66 49.9452L48.799 48.8061C50.7267 47.0537 52.8296 45.3013 54.9324 43.7242C57.4078 42.1285 60.017 40.7506 62.7306 39.606H62.8183C67.0547 38.1191 71.4788 37.2343 75.9613 36.9774C79.1308 36.9055 82.2999 37.1403 85.4242 37.6784C88.3045 38.2882 91.1208 39.1683 93.8358 40.307C97.8932 42.272 101.666 44.7773 105.051 47.7547C107.058 49.7622 108.931 51.8989 110.659 54.151L111.185 54.9395C111.993 56.1481 112.725 57.4065 113.375 58.7072L113.901 59.5834L113.988 59.7586C115.055 61.9795 115.905 64.2974 116.529 66.6806C116.967 68.433 117.318 70.1854 117.581 71.9378C117.831 73.7082 117.948 75.4948 117.931 77.2827C117.942 87.0517 114.425 96.4961 108.026 103.878C101.627 111.26 92.7775 116.082 83.1057 117.457C73.434 118.833 63.5908 116.669 55.3876 111.364C47.1844 106.059 41.1731 97.9704 38.4599 88.5857Z" fill="#241C24"/>
        <path d="M78.327 35.1374C80.2721 35.259 82.2188 34.9265 84.0132 34.1661C85.8077 33.4058 87.4006 32.2384 88.6662 30.7564C89.807 29.3004 90.6174 27.6137 91.0411 25.8131C91.4647 24.0126 91.4915 22.1415 91.1196 20.3296C90.5449 20.322 89.9751 20.4351 89.4468 20.6615C88.9186 20.8879 88.4437 21.2225 88.0529 21.6439C87.6413 22.1602 87.3428 22.7572 87.1767 23.3963C86.5633 25.0611 86.2128 26.2877 86.0376 26.7258C85.249 29.2668 84.8985 30.4935 84.2852 31.2821C83.6521 32.0605 82.8796 32.7142 82.0071 33.2097C82.5 32.5299 82.9117 31.7947 83.2337 31.0192C83.5794 29.9009 83.843 28.7588 84.0223 27.602C84.3088 26.19 84.8112 24.8305 85.5119 23.5715C84.699 24.7012 84.05 25.9401 83.5842 27.2516C83.3214 28.0401 83.1461 28.7411 82.6204 30.143C82.382 31.0465 81.8965 31.8657 81.2185 32.5088C80.688 32.9193 80.0476 33.1632 79.3785 33.2097C79.7356 32.2499 79.971 31.249 80.0794 30.2307C80.3054 28.1526 80.0352 26.0506 79.2908 24.0972C79.6433 25.4117 79.82 26.7669 79.8166 28.1278C79.5894 29.9737 79.0873 31.7752 78.327 33.4726C77.5265 31.7592 77.0228 29.9222 76.8375 28.0401C76.7962 26.6772 76.9737 25.3164 77.3632 24.0096C76.5763 25.952 76.3046 28.0648 76.5746 30.143C76.6732 31.1631 76.909 32.1651 77.2756 33.1221C76.6475 33.0186 76.0494 32.7794 75.5232 32.4212C74.8452 31.7781 74.3597 30.9589 74.1213 30.0554C73.5955 28.6535 73.4203 27.9525 73.1574 27.1639C72.7098 25.8717 72.0591 24.659 71.2298 23.5715C71.9441 24.8242 72.4473 26.1859 72.7193 27.602C72.8987 28.7588 73.1622 29.9009 73.5079 31.0192C73.7683 31.817 74.1212 32.5816 74.5594 33.2974C73.6679 32.8295 72.8902 32.1714 72.2812 31.3697C71.6679 30.5811 71.3174 29.3545 70.5288 26.8135C70.4412 26.3754 70.0031 25.1487 69.3898 23.4839C69.2237 22.8448 68.9251 22.2478 68.5136 21.7315C68.1227 21.3102 67.6478 20.9755 67.1196 20.7491C66.5914 20.5227 66.0215 20.4096 65.4469 20.4172C65.0484 22.2279 65.062 24.1051 65.4866 25.9099C65.9113 27.7147 66.7361 29.4009 67.9002 30.844C69.1831 32.323 70.7941 33.4815 72.6045 34.227C74.415 34.9725 76.3746 35.2842 78.327 35.1374Z" fill="#241C24"/>
        <path d="M67.4621 19.9791C67.9148 20.351 68.4599 20.5932 69.0393 20.6801C70.5201 21.0787 71.8957 21.7964 73.0698 22.7829C74.0253 23.6236 74.7238 24.717 75.0851 25.9373C74.9098 24.9814 74.9098 24.0017 75.0851 23.0458C75.3001 22.259 75.5936 21.4958 75.9613 20.7677C76.9251 18.7524 77.188 18.4019 77.5384 17.5257C77.9966 16.5371 78.2358 15.4611 78.2394 14.3714C78.2953 15.4263 78.5324 16.4637 78.9404 17.4381C79.2908 18.2267 79.6413 18.5772 80.6051 20.6801C80.9872 21.4017 81.2814 22.1665 81.4813 22.9582C81.6566 23.914 81.6566 24.8938 81.4813 25.8496C81.8426 24.6294 82.5412 23.536 83.4966 22.6953C84.6586 21.691 86.0386 20.971 87.5271 20.5924C88.1065 20.5056 88.6516 20.2633 89.1043 19.8915C89.3517 19.7218 89.5364 19.4755 89.63 19.1905L88.7538 19.6286C88.9 18.2171 88.7811 16.7907 88.4033 15.4229C88.4928 16.2478 88.308 17.0792 87.8776 17.7886C87.79 18.0515 87.4395 18.6648 87.2643 18.5772C87.089 18.4896 88.3157 16.5619 87.8776 14.3714C87.5536 13.3445 87.0813 12.3704 86.4757 11.4799C85.95 10.6914 85.4242 9.9904 84.8985 9.28944C84.4604 9.9904 84.0223 10.779 83.5842 11.5676C83.409 11.918 83.1461 12.3561 82.9709 12.7066C82.774 10.1203 82.183 7.57915 81.2185 5.1713C80.4808 3.35827 79.5087 1.64974 78.327 0.0893291C77.1189 1.61601 76.1173 3.29525 75.3479 5.08368C74.3645 7.48555 73.7729 10.0297 73.5955 12.619L72.9822 11.4799C72.5441 10.6914 72.106 9.9904 71.6679 9.20182C71.0932 9.89542 70.5662 10.6273 70.0907 11.3923C69.4511 12.2626 68.9759 13.2426 68.6888 14.2838C68.1631 16.4743 69.4774 18.4896 69.2145 18.4896C68.9517 18.4896 68.7764 17.8762 68.6012 17.701C68.2518 16.9615 68.0721 16.1531 68.0755 15.3352C67.8374 16.1638 67.6905 17.0158 67.6374 17.8762C67.6228 18.4326 67.6521 18.9892 67.725 19.541L66.8488 19.1029C66.9793 19.4403 67.1898 19.741 67.4621 19.9791Z" fill="#241C24"/>
        <path d="M47.1343 36.0136C48.3609 38.2917 48.9743 39.5184 49.1495 40.4822C49.2803 41.4825 49.1906 42.4993 48.8867 43.4613C48.7033 42.6484 48.4392 41.8558 48.0981 41.0955C47.5885 40.0695 46.9717 39.1002 46.2581 38.2041C45.4873 37.0002 44.8692 35.7052 44.418 34.3488C44.5993 35.7234 45.0142 37.0569 45.6447 38.2917C46.1507 39.1626 46.5901 40.0706 46.959 41.0079C47.4045 41.8134 47.6453 42.7161 47.66 43.6365C47.5655 44.2827 47.2924 44.8897 46.8714 45.3889C46.4506 44.4539 45.9212 43.5716 45.2942 42.7603C43.9625 41.1517 42.2854 39.8639 40.3875 38.9927C41.5933 39.6305 42.688 40.4589 43.6295 41.446C44.7815 42.9474 45.7247 44.598 46.4333 46.3527C44.6621 45.6786 43.0067 44.7326 41.5266 43.5489C40.5395 42.6075 39.711 41.5127 39.0732 40.307C40.307 43.2005 42.593 45.5178 45.4695 46.7908C44.9702 47.2118 44.3633 47.485 43.7171 47.5794C42.79 47.6183 41.8731 47.3738 41.0885 46.8785C39.7742 46.2651 39.1608 45.9146 38.3722 45.5642C37.1374 44.9337 35.8039 44.5188 34.4293 44.3375C35.7997 44.7534 37.0994 45.3738 38.2846 46.1775C39.1944 46.8718 40.1618 47.4874 41.1761 48.0175C41.9364 48.3586 42.7289 48.6228 43.5418 48.8061C42.5898 49.1567 41.5615 49.2474 40.5627 49.069C39.5989 48.8937 38.4599 48.2804 36.0941 47.0537C35.7436 46.8785 34.517 46.1775 32.9398 45.4765C32.3581 45.1669 31.74 44.9314 31.0998 44.7756C29.9566 44.7687 28.8561 45.2089 28.0331 46.0023C29.0422 47.5609 30.3815 48.8789 31.9561 49.8631C33.5307 50.8472 35.3023 51.4735 37.1456 51.6976C43.279 52.3109 47.2219 47.8423 47.5724 47.4918C47.9228 47.1413 52.3915 43.1984 51.8657 37.065C51.6529 35.2184 51.0313 33.4425 50.0462 31.8662C49.061 30.29 47.737 28.953 46.1704 27.9525C45.7449 28.3357 45.413 28.8115 45.2004 29.3432C44.9877 29.8749 44.8999 30.4483 44.9438 31.0192C45.0008 31.6722 45.2109 32.3026 45.5571 32.8592C46.2581 34.4364 46.959 35.6631 47.1343 36.0136Z" fill="#241C24"/>
        <path d="M22.7759 22.6953C23.3736 27.2278 25.3285 31.4735 28.3836 34.8745L27.1569 34.524C26.2807 34.2612 25.4921 34.0859 24.6159 33.8231C24.6762 34.7402 24.8229 35.6497 25.054 36.5393C25.2317 37.6128 25.5871 38.6493 26.1054 39.606C27.3321 41.5336 29.6102 41.9717 29.5226 42.2346C29.435 42.4975 28.8217 42.147 28.5588 42.0594C27.7801 41.8125 27.0834 41.3581 26.5435 40.7451C26.9378 41.5131 27.4394 42.2212 28.0331 42.8479C28.3986 43.2718 28.81 43.6538 29.2598 43.987L28.3836 44.3375C28.6657 44.4378 28.9608 44.4968 29.2598 44.5127C29.8277 44.4402 30.3692 44.2296 30.8369 43.8994C32.1416 43.1225 33.6143 42.6717 35.1303 42.5851C36.4072 42.4896 37.6847 42.7634 38.8103 43.3737C37.9909 42.8309 37.3025 42.1126 36.7951 41.2708C36.3855 40.5827 36.0618 39.8471 35.8313 39.0803C35.0427 36.9774 35.0427 36.4517 34.6922 35.6631C34.2749 34.6802 33.7138 33.7648 33.0274 32.9469C33.8235 33.6631 34.7441 34.2274 35.7436 34.6116C36.6198 34.9621 37.0579 34.9621 39.1608 35.7507C39.9276 35.9813 40.6633 36.3049 41.3513 36.7145C42.1777 37.2777 42.891 37.991 43.4542 38.8174C42.8439 37.6917 42.5702 36.4143 42.6656 35.1374C42.7938 33.6291 43.2418 32.1655 43.9799 30.844C44.3101 30.3763 44.5207 29.8347 44.5933 29.2668C44.6076 28.972 44.5781 28.6767 44.5057 28.3906L44.1552 29.2668C43.822 28.8171 43.44 28.4057 43.0161 28.0401C42.3893 27.4464 41.6813 26.9449 40.9132 26.5506C41.5263 27.0904 41.9807 27.7872 42.2275 28.5659C42.3152 28.8287 42.4904 29.5297 42.4028 29.5297C41.868 28.1646 40.9564 26.9795 39.7742 26.1125C38.8174 25.5941 37.781 25.2388 36.7075 25.0611C35.8313 24.8858 34.8674 24.7106 33.9912 24.623C34.1665 25.4992 34.4293 26.2877 34.6922 27.1639C34.7798 27.602 34.9551 28.0401 35.0427 28.3906C31.5951 25.339 27.3319 23.3596 22.7759 22.6953Z" fill="#241C24"/>
        <path d="M30.7493 67.0311C29.3037 65.8715 27.6174 65.0494 25.8134 64.6249C24.0095 64.2005 22.1335 64.1844 20.3225 64.5778C20.315 65.1524 20.428 65.7223 20.6544 66.2505C20.8808 66.7787 21.2155 67.2536 21.6368 67.6445C22.1531 68.056 22.7502 68.3546 23.3892 68.5207C25.054 69.134 26.2807 69.4845 26.7188 69.6597C29.2598 70.4483 30.4864 70.7988 31.275 71.4121C32.0734 71.9888 32.7321 72.7374 33.2027 73.6026C32.5203 73.1374 31.7849 72.755 31.0122 72.4636C29.8938 72.1179 28.7517 71.8543 27.595 71.675C26.1829 71.3886 24.8234 70.8861 23.5644 70.1854C24.6734 71.0313 25.9177 71.683 27.2445 72.1131C28.0331 72.376 28.734 72.5512 30.136 73.0769C31.0395 73.3154 31.8587 73.8008 32.5017 74.4788C32.9122 75.0093 33.1561 75.6497 33.2027 76.3189C32.2428 75.9618 31.242 75.7263 30.2236 75.6179C28.1455 75.3919 26.0435 75.6622 24.0902 76.4065C25.4046 76.0541 26.7599 75.8773 28.1207 75.8808C29.9666 76.1079 31.7682 76.61 33.4655 77.3703C31.7521 78.1708 29.9152 78.6745 28.0331 78.8598C26.6726 78.8576 25.3181 78.6809 24.0025 78.3341C25.9449 79.1211 28.0577 79.3927 30.136 79.1227C31.156 79.0241 32.1581 78.7883 33.115 78.4217C33.0115 79.0499 32.7723 79.6479 32.4141 80.1741C31.771 80.8521 30.9518 81.3376 30.0483 81.5761C28.6464 82.1018 27.9455 82.277 27.1569 82.5399C25.8646 82.9875 24.6519 83.6382 23.5644 84.4675C24.8342 83.7907 26.1902 83.2896 27.595 82.978C28.7577 82.8799 29.9047 82.6446 31.0122 82.277C31.7849 81.9856 32.5203 81.6032 33.2027 81.138C32.7348 82.0294 32.0767 82.8071 31.275 83.4161C30.4864 84.0294 29.2598 84.3799 26.7188 85.1685C26.2807 85.2561 25.054 85.6942 23.3892 86.3076C22.7502 86.4737 22.1531 86.7722 21.6368 87.1838C21.2173 87.5574 20.8829 88.0167 20.6562 88.5306C20.4295 89.0445 20.3157 89.6011 20.3225 90.1628C22.1332 90.5613 24.0104 90.5477 25.8152 90.1231C27.62 89.6984 29.3062 88.8736 30.7493 87.7095C32.2335 86.4265 33.4012 84.818 34.1612 83.0093C34.9211 81.2006 35.2528 79.2407 35.1303 77.2827C35.2348 75.3524 34.894 73.424 34.1344 71.6464C33.3747 69.8688 32.2165 68.2897 30.7493 67.0311Z" fill="#241C24"/>
        <path d="M11.4729 82.7151L9.19474 84.0294C9.86629 84.6321 10.6007 85.1609 11.3852 85.6066C12.2555 86.2462 13.2355 86.7214 14.2767 87.0085C16.4672 87.5342 18.4825 86.2199 18.4825 86.4828C18.4825 86.7456 17.8691 86.9209 17.6939 87.0961C16.9544 87.4456 16.1461 87.6252 15.3282 87.6218C16.1567 87.8599 17.0087 88.0068 17.8691 88.0599C18.4255 88.0745 18.9821 88.0452 19.5339 87.9723L19.0958 88.8485C19.3448 88.6947 19.5794 88.5188 19.7968 88.3228C20.1511 87.8926 20.3921 87.3805 20.4977 86.8333C20.8763 85.3447 21.5963 83.9648 22.6006 82.8027C23.4413 81.8473 24.5347 81.1487 25.7549 80.7875C24.7991 80.9627 23.8193 80.9627 22.8635 80.7875C22.0767 80.5725 21.3135 80.2789 20.5854 79.9113C18.4825 78.9474 18.2196 78.597 17.3434 78.2465C16.3548 77.7883 15.2788 77.5492 14.1891 77.5455C15.271 77.4804 16.3357 77.2438 17.3434 76.8446C18.132 76.4941 18.4825 76.1436 20.5854 75.1798C21.307 74.7977 22.0718 74.5036 22.8635 74.3036C23.8193 74.1283 24.7991 74.1283 25.7549 74.3036C24.5347 73.9423 23.4413 73.2438 22.6006 72.2883C21.5963 71.1263 20.8763 69.7463 20.4977 68.2578C20.4109 67.6784 20.1686 67.1334 19.7968 66.6806C19.6271 66.4332 19.3808 66.2485 19.0958 66.1549L19.5339 67.0311C18.9821 66.9583 18.4255 66.929 17.8691 66.9435C17.0049 66.9611 16.1483 67.1088 15.3282 67.3816C16.1531 67.2922 16.9845 67.4769 17.6939 67.9073C17.9568 67.9949 18.5701 68.3454 18.4825 68.5206C18.3949 68.6959 16.4672 67.4692 14.2767 67.9073C13.2311 68.2257 12.2515 68.7303 11.3852 69.3968C10.5967 69.9226 9.8957 70.4483 9.19474 70.974C9.8957 71.4121 10.6843 71.8502 11.4729 72.2883L12.6119 72.9017C10.0256 73.0986 7.48445 73.6895 5.0766 74.6541C3.24706 75.3573 1.53386 76.332 -0.00536919 77.5455H0.0822509C3.68949 80.3314 8.06035 81.9514 12.6119 82.1894L11.4729 82.7151Z" fill="#241C24"/>
        <path d="M47.0466 118.902C46.8714 119.253 46.1704 120.479 45.4695 122.057C45.1599 122.638 44.9244 123.256 44.7685 123.897C44.7616 125.04 45.2019 126.14 45.9952 126.963C47.5539 125.954 48.8719 124.615 49.856 123.04C50.8401 121.466 51.4664 119.694 51.6905 117.851C52.3038 111.717 47.8352 107.774 47.4847 107.424C46.1911 105.958 44.5784 104.809 42.7707 104.065C40.963 103.32 39.0086 103.001 37.0579 103.131C35.2221 103.345 33.4553 103.957 31.8812 104.926C30.3071 105.895 28.9638 107.196 27.9454 108.738C28.3287 109.164 28.8044 109.496 29.3361 109.708C29.8678 109.921 30.4412 110.009 31.0122 109.965C31.6719 109.879 32.3022 109.638 32.8522 109.264C33.931 108.795 34.984 108.269 36.0065 107.687C38.2846 106.46 39.5113 105.847 40.4751 105.672C41.4754 105.541 42.4923 105.63 43.4542 105.934C42.6413 106.118 41.8488 106.382 41.0885 106.723C40.0624 107.233 39.0932 107.849 38.197 108.563C36.9931 109.334 35.6981 109.952 34.3417 110.403C35.7163 110.222 37.0498 109.807 38.2846 109.176C39.1556 108.67 40.0636 108.231 41.0008 107.862C41.8021 107.406 42.7075 107.165 43.6295 107.161C44.2756 107.256 44.8826 107.529 45.3819 107.95C44.4468 108.371 43.5646 108.9 42.7532 109.527C41.0946 110.809 39.7965 112.5 38.9856 114.434C39.6234 113.228 40.4519 112.133 41.4389 111.192C42.9403 110.04 44.5909 109.096 46.3457 108.388C45.6715 110.159 44.7255 111.814 43.5418 113.295C42.6004 114.282 41.5056 115.11 40.2999 115.748C42.1978 114.877 43.8749 113.589 45.2066 111.98C45.8645 111.19 46.3964 110.304 46.7838 109.352C47.2048 109.851 47.4779 110.458 47.5724 111.104C47.6113 112.031 47.3668 112.948 46.8714 113.733C46.2581 115.047 45.9076 115.66 45.5571 116.449C44.9266 117.684 44.5117 119.017 44.3304 120.392C44.7464 119.021 45.3667 117.722 46.1704 116.536C46.8641 115.657 47.4797 114.719 48.0105 113.733C48.3516 112.972 48.6157 112.18 48.799 111.367C49.1496 112.319 49.2404 113.347 49.0619 114.346C48.8867 115.397 48.2733 116.536 47.0466 118.902Z" fill="#241C24"/>
        <path d="M42.4904 119.866C42.3949 118.589 42.6687 117.312 43.279 116.186C42.7643 117.051 42.0414 117.774 41.1761 118.289C40.4881 118.698 39.7524 119.022 38.9856 119.253C36.8827 120.041 36.357 120.041 35.5684 120.392C34.5855 120.809 33.6701 121.37 32.8522 122.057C33.5684 121.26 34.1327 120.34 34.517 119.34C34.8674 118.552 34.8674 118.026 35.656 115.923C35.8866 115.156 36.2102 114.421 36.6198 113.733C37.183 112.906 37.8964 112.193 38.7227 111.63C37.597 112.24 36.3196 112.514 35.0427 112.418C33.5344 112.29 32.0708 111.842 30.7493 111.104C30.2816 110.774 29.7401 110.563 29.1721 110.491C28.8773 110.476 28.582 110.506 28.2959 110.578L29.1721 110.929C28.7224 111.262 28.311 111.644 27.9454 112.068C27.3517 112.695 26.8502 113.403 26.4559 114.171C26.9958 113.558 27.6925 113.103 28.4712 112.856C28.734 112.769 29.435 112.594 29.435 112.681C28.0699 113.216 26.8848 114.128 26.0178 115.31C25.5002 116.236 25.1446 117.243 24.9664 118.289C24.7708 119.186 24.6246 120.092 24.5283 121.005C25.4045 120.83 26.193 120.567 27.0692 120.304L28.2959 119.954C26.563 121.897 25.1708 124.118 24.1778 126.525C23.4675 128.331 22.9676 130.213 22.6882 132.133V132.045C24.6107 131.777 26.4937 131.277 28.2959 130.556C30.709 129.575 32.9328 128.182 34.8674 126.438L34.517 127.664C34.2541 128.54 34.0789 129.329 33.816 130.205C34.6922 130.118 35.656 129.942 36.5322 129.767C37.6058 129.589 38.6422 129.234 39.5989 128.716C41.5266 127.489 41.9647 125.211 42.2275 125.298C42.4904 125.386 42.1399 126.087 42.0523 126.262C41.8055 127.041 41.3511 127.738 40.738 128.278C41.9881 127.596 43.0901 126.673 43.9799 125.561L44.3304 126.438C44.4994 126.015 44.5479 125.554 44.4706 125.105C44.3932 124.657 44.1931 124.238 43.8923 123.897C43.0667 122.706 42.5819 121.312 42.4904 119.866Z" fill="#241C24"/>
        <path d="M77.4508 119.866C75.5509 119.713 73.6416 120.01 71.8778 120.732C70.114 121.455 68.5454 122.583 67.2993 124.026C66.0532 125.468 65.1647 127.184 64.7058 129.034C64.247 130.884 64.2307 132.816 64.6583 134.674C65.2329 134.681 65.8028 134.568 66.331 134.342C66.8593 134.116 67.3341 133.781 67.725 133.36C68.1366 132.843 68.4351 132.246 68.6012 131.607C69.2145 129.942 69.565 128.716 69.7402 128.278C70.5288 125.737 70.8793 124.51 71.4927 123.721C72.0694 122.923 72.8179 122.264 73.6832 121.794C73.2179 122.476 72.8355 123.211 72.5441 123.984C72.1984 125.103 71.9348 126.245 71.7555 127.401C71.4691 128.813 70.9667 130.173 70.266 131.432C71.0602 130.322 71.7081 129.115 72.1936 127.839C72.4565 127.051 72.6317 126.35 73.1574 124.948C73.4305 124.064 73.9466 123.275 74.647 122.67C75.1775 122.259 75.8178 122.015 76.487 121.969C76.1299 122.929 75.8944 123.93 75.786 124.948C75.56 127.026 75.8303 129.128 76.5746 131.081C76.2222 129.767 76.0454 128.412 76.0489 127.051C76.2873 125.179 76.7887 123.35 77.5384 121.618C78.3384 123.301 78.8423 125.109 79.028 126.963C79.0258 128.324 78.8491 129.678 78.5023 130.994C79.6691 128.074 79.7003 124.823 78.5899 121.881C79.218 121.985 79.816 122.224 80.3423 122.582C81.0381 123.211 81.527 124.036 81.7442 124.948C82.2699 126.35 82.4452 127.051 82.708 127.839C83.1556 129.132 83.8064 130.344 84.6357 131.432C83.9588 130.162 83.4577 128.806 83.1461 127.401C82.9969 126.247 82.7626 125.104 82.4452 123.984C82.1537 123.211 81.7714 122.476 81.3061 121.794C82.1934 122.229 82.9718 122.858 83.5842 123.634C84.1976 124.422 84.5481 125.649 85.3366 128.19C85.4243 128.628 85.8623 129.855 86.4757 131.52C86.6418 132.159 86.9403 132.756 87.3519 133.272C87.7427 133.693 88.2176 134.028 88.7459 134.254C89.2741 134.481 89.8439 134.594 90.4186 134.586C90.8171 132.775 90.8035 130.898 90.3788 129.094C89.9542 127.289 89.1293 125.603 87.9652 124.159C86.6528 122.693 85.0242 121.545 83.2027 120.801C81.3811 120.058 79.4142 119.738 77.4508 119.866Z" fill="#241C24"/>
        <path d="M88.2281 135.024C87.7754 134.652 87.2303 134.41 86.6509 134.323C85.1701 133.925 83.7945 133.207 82.6204 132.22C81.665 131.38 80.9664 130.286 80.6051 129.066C80.7804 130.022 80.7804 131.002 80.6051 131.958C80.3902 132.744 80.0966 133.508 79.7289 134.236C78.7651 136.251 78.5023 136.601 78.1518 137.478C77.6936 138.466 77.4545 139.542 77.4508 140.632C77.3857 139.55 77.1491 138.485 76.7499 137.478C76.3994 136.689 76.0489 136.339 75.0851 134.236C74.703 133.514 74.4089 132.749 74.2089 131.958C74.0336 131.002 74.0336 130.022 74.2089 129.066C73.8476 130.286 73.1491 131.38 72.1936 132.22C71.0098 133.192 69.6375 133.908 68.1631 134.323C67.5837 134.41 67.0386 134.652 66.5859 135.024C66.3385 135.194 66.1538 135.44 66.0602 135.725L66.9364 135.287C66.8635 135.839 66.8343 136.396 66.8488 136.952C66.8664 137.816 67.0141 138.673 67.2869 139.493C67.1975 138.668 67.3822 137.837 67.8126 137.127C67.9002 136.864 68.2507 136.251 68.4259 136.339C68.6012 136.426 67.3745 138.442 67.8126 140.632C68.0997 141.673 68.5749 142.653 69.2145 143.523C69.7402 144.312 70.266 145.013 70.7917 145.714C71.2298 145.013 71.6679 144.224 72.106 143.436L72.7193 142.297C72.8766 144.852 73.4385 147.366 74.3841 149.745C75.1559 151.541 76.1258 153.245 77.2756 154.826C80.0615 151.219 81.6815 146.848 81.9194 142.297C82.0947 142.647 82.3575 143.085 82.5328 143.436C82.9709 144.224 83.409 144.925 83.8471 145.714C84.4498 145.042 84.9785 144.308 85.4242 143.523C86.0639 142.653 86.539 141.673 86.8262 140.632C87.3519 138.442 86.0376 136.426 86.3005 136.339C86.5633 136.251 86.7385 136.952 86.9138 137.127C87.2632 137.867 87.4429 138.675 87.4395 139.493C87.6776 138.664 87.8245 137.812 87.8776 136.952C87.8922 136.396 87.8628 135.839 87.79 135.287L88.6662 135.725C88.6565 135.581 88.6114 135.442 88.535 135.32C88.4586 135.198 88.3532 135.096 88.2281 135.024Z" fill="#241C24"/>
        <path d="M107.855 118.99C106.628 116.712 106.015 115.485 105.84 114.521C105.753 113.52 105.842 112.512 106.103 111.542C106.286 112.355 106.55 113.148 106.891 113.908C107.401 114.934 108.018 115.903 108.731 116.799C109.502 118.003 110.12 119.298 110.571 120.655C110.39 119.28 109.975 117.947 109.345 116.712C108.856 115.831 108.418 114.925 108.03 113.996C107.574 113.194 107.333 112.289 107.329 111.367C107.424 110.721 107.697 110.114 108.118 109.614C109.391 112.491 111.708 114.777 114.602 116.011C113.396 115.373 112.301 114.544 111.36 113.557C110.208 112.056 109.265 110.405 108.556 108.651C110.327 109.325 111.983 110.271 113.463 111.455C114.45 112.396 115.278 113.491 115.916 114.696C115.045 112.799 113.757 111.121 112.148 109.79C111.359 109.132 110.472 108.6 109.52 108.213C110.019 107.792 110.626 107.518 111.272 107.424C112.198 107.396 113.112 107.64 113.901 108.125C115.215 108.738 115.828 109.089 116.617 109.439C117.852 110.07 119.185 110.485 120.56 110.666C119.19 110.25 117.89 109.63 116.705 108.826C115.778 108.112 114.779 107.495 113.726 106.986C112.965 106.645 112.173 106.381 111.36 106.197C112.312 105.847 113.34 105.756 114.339 105.934C115.303 106.11 116.442 106.723 118.808 107.95C119.158 108.125 120.385 108.826 121.962 109.527C122.53 109.848 123.155 110.056 123.802 110.14C124.945 110.147 126.046 109.707 126.869 108.914C125.869 107.354 124.531 106.04 122.953 105.069C121.375 104.098 119.599 103.495 117.756 103.306C111.623 102.693 107.68 107.161 107.329 107.599C104.891 109.688 103.376 112.654 103.113 115.854C102.851 119.053 103.862 122.227 105.927 124.685C106.735 125.638 107.68 126.465 108.731 127.139C109.157 126.755 109.489 126.28 109.701 125.748C109.914 125.216 110.002 124.643 109.958 124.072C109.872 123.412 109.631 122.782 109.257 122.232C108.869 121.119 108.4 120.035 107.855 118.99Z" fill="#241C24"/>
        <path d="M132.213 132.308C131.945 130.386 131.445 128.503 130.724 126.7C129.743 124.287 128.35 122.064 126.606 120.129L127.832 120.479L130.373 121.18C130.313 120.263 130.166 119.354 129.935 118.464C129.758 117.391 129.402 116.354 128.884 115.397C127.657 113.47 125.379 113.032 125.467 112.769C125.554 112.506 126.255 112.856 126.43 112.944C127.209 113.191 127.906 113.645 128.446 114.258C128.008 113.517 127.51 112.814 126.956 112.155C126.591 111.732 126.179 111.35 125.73 111.016L126.606 110.666C126.299 110.547 125.965 110.516 125.642 110.578C125.061 110.594 124.504 110.811 124.065 111.192C122.76 111.968 121.287 112.419 119.771 112.506C118.494 112.601 117.217 112.328 116.091 111.717C116.937 112.257 117.655 112.974 118.194 113.82C118.604 114.508 118.927 115.244 119.158 116.011C119.947 118.114 119.947 118.639 120.297 119.428C120.714 120.411 121.275 121.326 121.962 122.144C121.18 121.409 120.256 120.842 119.246 120.479C118.457 120.129 117.931 120.129 115.828 119.34C115.062 119.11 114.326 118.786 113.638 118.376C112.812 117.813 112.098 117.1 111.535 116.274C112.145 117.399 112.419 118.677 112.324 119.954C112.195 121.462 111.747 122.926 111.009 124.247C110.679 124.715 110.469 125.256 110.396 125.824C110.382 126.148 110.411 126.472 110.484 126.788L110.834 125.824C111.167 126.274 111.549 126.685 111.973 127.051C112.6 127.645 113.308 128.146 114.076 128.54C113.463 128.001 113.009 127.304 112.762 126.525C112.674 126.262 112.499 125.561 112.586 125.561C113.121 126.926 114.033 128.112 115.215 128.979C116.172 129.497 117.208 129.852 118.282 130.03C119.179 130.225 120.085 130.372 120.998 130.468C120.823 129.592 120.56 128.803 120.297 127.927L119.947 126.7C123.391 129.742 127.66 131.693 132.213 132.308Z" fill="#241C24"/>
        <path d="M123.714 71.4997C124.503 70.8864 125.729 70.5359 128.27 69.7473C128.709 69.5721 129.935 69.2216 131.6 68.6082C132.239 68.4421 132.836 68.1436 133.352 67.732C133.774 67.3412 134.108 66.8663 134.335 66.3381C134.561 65.8098 134.674 65.24 134.667 64.6653C132.856 64.2669 130.979 64.2804 129.174 64.7051C127.369 65.1298 125.683 65.9546 124.24 67.1187C119.508 71.0616 119.859 76.9322 119.859 77.4579C119.859 77.9836 119.421 83.9418 124.24 87.8847C125.686 89.0443 127.372 89.8664 129.176 90.2909C130.98 90.7153 132.856 90.7314 134.667 90.338C134.674 89.7634 134.561 89.1935 134.335 88.6653C134.108 88.1371 133.774 87.6622 133.352 87.2713C132.836 86.8598 132.239 86.5612 131.6 86.3951C129.935 85.7818 128.709 85.4313 128.27 85.2561C125.729 84.4675 124.503 84.117 123.714 83.5037C122.938 82.8913 122.31 82.1128 121.874 81.2255C122.557 81.6908 123.292 82.0732 124.065 82.3646C125.183 82.7103 126.325 82.9739 127.482 83.1532C128.898 83.4252 130.26 83.9285 131.512 84.6427C130.403 83.8485 129.195 83.2006 127.92 82.7151C127.131 82.4522 126.43 82.277 125.029 81.7513C124.172 81.5084 123.389 81.0568 122.75 80.437C122.34 79.9065 122.096 79.2661 122.049 78.5969C123.009 78.954 124.01 79.1895 125.029 79.2979C127.107 79.5239 129.209 79.2536 131.162 78.5093C129.848 78.8617 128.492 79.0385 127.131 79.035C125.251 78.8382 123.416 78.3351 121.699 77.5455C123.382 76.7455 125.19 76.2416 127.044 76.056C128.404 76.0582 129.759 76.2348 131.074 76.5817C129.132 75.7947 127.019 75.5231 124.941 75.7931C123.921 75.8917 122.919 76.1275 121.962 76.4941C122.064 75.8383 122.302 75.2113 122.663 74.654C123.291 73.9582 124.116 73.4693 125.029 73.2521C126.43 72.7264 127.131 72.5511 127.92 72.2883C129.212 71.8407 130.425 71.19 131.512 70.3606C130.243 71.0375 128.887 71.5386 127.482 71.8502C126.325 72.0295 125.183 72.2931 124.065 72.6388C123.292 72.9302 122.557 73.3126 121.874 73.7778C122.286 72.8756 122.919 72.092 123.714 71.4997Z" fill="#241C24"/>
        <path d="M154.995 77.5455C151.347 74.7716 146.953 73.1541 142.377 72.9016L143.516 72.2883L145.795 70.974C145.123 70.3713 144.389 69.8425 143.604 69.3968C142.734 68.7571 141.754 68.282 140.713 67.9949C138.522 67.4692 136.507 68.7835 136.419 68.6082C136.332 68.433 137.033 68.1701 137.208 67.9949C137.947 67.6455 138.756 67.4658 139.573 67.4692C138.745 67.2311 137.893 67.0842 137.032 67.0311C136.476 67.0165 135.919 67.0458 135.368 67.1187C135.543 66.8558 135.631 66.5054 135.806 66.2425C135.557 66.3963 135.322 66.5722 135.105 66.7682C134.733 67.2209 134.491 67.766 134.404 68.3454C134.025 69.8339 133.305 71.2139 132.301 72.3759C131.46 73.3314 130.367 74.0299 129.147 74.3912C130.103 74.2159 131.082 74.2159 132.038 74.3912C132.83 74.5911 133.595 74.8853 134.316 75.2674C136.332 76.2312 136.682 76.494 137.558 76.8445C138.56 77.2619 139.628 77.4992 140.713 77.5455C139.631 77.6106 138.566 77.8472 137.558 78.2465C136.77 78.5969 136.419 78.9474 134.316 79.8236C133.595 80.2057 132.83 80.4998 132.038 80.6998C131.082 80.8751 130.103 80.8751 129.147 80.6998C130.367 81.061 131.46 81.7596 132.301 82.7151C133.273 83.8989 133.989 85.2712 134.404 86.7456C134.491 87.325 134.733 87.87 135.105 88.3228C135.274 88.5702 135.521 88.7549 135.806 88.8485C135.631 88.5856 135.543 88.2351 135.368 87.9723C135.919 88.0451 136.476 88.0744 137.032 88.0599C137.897 88.0423 138.753 87.8946 139.573 87.6218C138.749 87.7112 137.917 87.5265 137.208 87.0961C136.945 87.0085 136.332 86.658 136.419 86.4827C136.507 86.3075 138.522 87.5342 140.713 87.0085C141.754 86.7213 142.734 86.2462 143.604 85.6065C144.369 85.131 145.101 84.6041 145.795 84.0294L143.516 82.7151L142.377 82.1017C144.964 81.9048 147.505 81.3139 149.913 80.3493C151.704 79.6041 153.409 78.6638 154.995 77.5455Z" fill="#241C24"/>
        <path d="M107.943 36.1012C108.118 35.7507 108.819 34.524 109.52 32.9469C109.841 32.3787 110.049 31.7539 110.133 31.1069C110.14 29.9637 109.7 28.8632 108.906 28.0402C107.347 29.0397 106.033 30.3781 105.062 31.9558C104.091 33.5335 103.488 35.3099 103.299 37.1527C102.685 43.2861 107.154 47.229 107.592 47.5794C108.03 47.9299 111.886 52.3986 118.019 51.8728C119.866 51.66 121.641 51.0384 123.218 50.0533C124.794 49.0681 126.131 47.7441 127.131 46.1775C126.748 45.752 126.272 45.4201 125.741 45.2075C125.209 44.9948 124.636 44.907 124.065 44.9508C123.421 45.0484 122.798 45.2559 122.225 45.5642C121.146 46.0332 120.093 46.5597 119.07 47.1413C116.792 48.368 115.566 48.9814 114.602 49.1566C113.601 49.2874 112.585 49.1977 111.623 48.8937C112.439 48.7238 113.233 48.4591 113.988 48.1052C115.014 47.5956 115.984 46.9788 116.88 46.2651C118.084 45.4944 119.379 44.8763 120.735 44.4251C119.361 44.6064 118.027 45.0213 116.792 45.6518C115.912 46.14 115.005 46.5788 114.076 46.9661C113.271 47.4116 112.368 47.6524 111.447 47.6671C110.801 47.5726 110.194 47.2995 109.695 46.8785C110.63 46.4577 111.512 45.9283 112.324 45.3013C113.932 43.9696 115.22 42.2925 116.091 40.3946C115.453 41.6003 114.625 42.6951 113.638 43.6365C112.137 44.7886 110.486 45.7318 108.731 46.4404C109.405 44.6692 110.351 43.0137 111.535 41.5337C112.476 40.5466 113.571 39.7181 114.777 39.0803C112.861 39.9216 111.178 41.2144 109.87 42.848C109.212 43.6378 108.68 44.5244 108.293 45.4766C107.872 44.9773 107.599 44.3704 107.505 43.7242C107.477 42.7984 107.72 41.8847 108.205 41.0956C108.819 39.7813 109.169 39.1679 109.52 38.3793C110.15 37.1445 110.565 35.811 110.746 34.4364C110.33 35.8067 109.71 37.1065 108.906 38.2917C108.212 39.2015 107.597 40.1689 107.066 41.1832C106.725 41.9435 106.461 42.736 106.278 43.5489C105.927 42.5969 105.837 41.5686 106.015 40.5698C106.015 39.606 106.716 38.3793 107.943 36.1012Z" fill="#241C24"/>
        <path d="M112.499 35.1374C112.594 36.4143 112.321 37.6917 111.71 38.8174C112.253 37.998 112.971 37.3096 113.813 36.8021C114.501 36.3926 115.237 36.0689 116.004 35.8383C118.107 35.0497 118.632 35.0497 119.421 34.6993C120.404 34.282 121.319 33.7209 122.137 33.0345C121.421 33.8305 120.857 34.7512 120.472 35.7507C120.122 36.6269 120.122 37.065 119.333 39.1679C119.103 39.9347 118.779 40.6704 118.369 41.3584C117.806 42.1848 117.093 42.8981 116.267 43.4613C117.392 42.851 118.67 42.5772 119.947 42.6727C121.455 42.8008 122.918 43.2489 124.24 43.987C124.708 44.3172 125.249 44.5278 125.817 44.6003C126.141 44.6147 126.465 44.5853 126.781 44.5127L125.817 44.1622C126.948 43.2927 127.875 42.1861 128.533 40.9203C127.993 41.5334 127.297 41.9878 126.518 42.2346C126.255 42.3222 125.554 42.4975 125.554 42.4098C126.919 41.8751 128.104 40.9635 128.971 39.7812C129.49 38.8245 129.845 37.7881 130.023 36.7145C130.198 35.8383 130.373 34.8745 130.461 33.9983L127.92 34.6993L126.693 35.0497C129.748 31.6487 131.703 27.403 132.301 22.8705C127.769 23.4683 123.523 25.4231 120.122 28.4782C120.209 28.0401 120.385 27.602 120.472 27.2516C120.735 26.3753 120.91 25.5868 121.173 24.7106C120.256 24.7709 119.347 24.9175 118.457 25.1487C117.383 25.3264 116.347 25.6817 115.39 26.2001C113.463 27.4268 113.025 29.7049 112.762 29.6173C112.499 29.5297 112.849 28.9163 112.937 28.6535C113.184 27.8748 113.638 27.1781 114.251 26.6382C113.001 27.3196 111.899 28.243 111.009 29.3544L110.659 28.4782C110.544 28.7552 110.513 29.0601 110.571 29.3544C110.587 29.9352 110.804 30.4925 111.185 30.9316C111.946 32.2112 112.396 33.6519 112.499 35.1374Z" fill="#241C24"/>
        <path d="M77.4508 37.5907C69.6005 37.5907 61.9265 39.9186 55.3992 44.28C48.8719 48.6414 43.7845 54.8405 40.7803 62.0932C37.7761 69.346 36.9901 77.3267 38.5216 85.0262C40.0531 92.7256 43.8334 99.7981 49.3844 105.349C54.9354 110.9 62.0078 114.68 69.7073 116.212C77.4068 117.743 85.3875 116.957 92.6403 113.953C99.893 110.949 106.092 105.862 110.453 99.3343C114.815 92.807 117.143 85.133 117.143 77.2826C117.154 72.067 116.136 66.9004 114.145 62.0796C112.154 57.2587 109.231 52.8785 105.543 49.1905C101.855 45.5024 97.4748 42.5792 92.6539 40.5886C87.8331 38.598 82.6665 37.5792 77.4508 37.5907ZM77.4508 114.346C70.1204 114.346 62.9546 112.172 56.8595 108.1C50.7645 104.027 46.014 98.2386 43.2088 91.4662C40.4035 84.6937 39.6696 77.2415 41.0997 70.052C42.5298 62.8624 46.0597 56.2583 51.2431 51.0749C56.4265 45.8915 63.0305 42.3616 70.2201 40.9315C77.4097 39.5014 84.8619 40.2354 91.6343 43.0406C98.4068 45.8458 104.195 50.5963 108.268 56.6914C112.34 62.7864 114.514 69.9522 114.514 77.2826C114.512 87.1117 110.606 96.5376 103.656 103.488C96.7057 110.438 87.2799 114.344 77.4508 114.346Z" fill="#241C24"/>
        <path d="M100.346 77.4316C100.426 81.105 99.7702 84.7573 98.4183 88.1738C97.2192 91.1016 95.353 93.7089 92.9683 95.788C90.4866 97.8855 87.5861 99.4298 84.4604 100.318C80.8789 101.335 77.1695 101.831 73.4466 101.79C71.5306 101.79 69.3576 101.708 66.9276 101.545C64.5977 101.399 62.2831 101.068 60.0056 100.555V54.3788C62.3106 53.8604 64.6557 53.5409 67.0153 53.4237C69.4861 53.2835 71.6825 53.2134 73.6043 53.2134C77.2883 53.1761 80.9597 53.6509 84.513 54.6241C87.6182 55.4614 90.5076 56.9553 92.9859 59.0051C95.3794 61.0618 97.2427 63.6644 98.4183 66.593C99.773 70.0424 100.428 73.7267 100.346 77.4316ZM68.645 94.0794C69.1444 94.0794 69.8103 94.1583 70.634 94.1846C71.4576 94.2109 72.5791 94.1846 73.9986 94.1846C79.8107 94.1846 84.145 92.7067 87.0014 89.751C89.8578 86.7953 91.286 82.6684 91.286 77.3703C91.286 71.9729 89.89 67.8343 87.0978 64.9545C84.3056 62.0747 79.983 60.6348 74.13 60.6348C72.2994 60.6057 70.4685 60.6729 68.645 60.8364V94.0794Z" fill="#241C24"/>
    </g>
    <defs>
        <clipPath id="clip0_1_3">
            <rect width="155" height="154.912" fill="white" transform="translate(-0.00537109 0.00170898)"/>
        </clipPath>
    </defs>
</svg>
